# xmcd
#
# Track frame offsets:
# 150
# 16002
# 35228
# 60770
# 77508
# 93732
# 111113
# 126199
# 143335
# 159968
# 180630
# 198745
# 215662
# 236439
# 256031
# 279773
# 298908
# 316701
# 334051
#
# Disc length: 4673 seconds
#
#
# Revision: 0
# Processed by: cddbd v1.5.2PL0 Copyright (c) Steve Scherf et al.
# Submitted via: FreeRIP 2.96 
#
DISCID=fe123f13
DTITLE=Various Artist - Electronic 80's (Ministry Of Sound)
DYEAR=2010
DGENRE=Electronic
TTITLE0=Tears For Fears - Mad World
TTITLE1=Heaven 17 - Let Me Go
TTITLE2=Talk Talk - Such A Shame
TTITLE3=Sigue Sigue Sputnik - Love Missile F1-11
TTITLE4=Erasure - Sometimes
TTITLE5=Real Life - Send Me An Angel
TTITLE6=Paul King - Love And Pride
TTITLE7=Billy Idol - Flesh For Fantasy
TTITLE8=Thomas Dolby - She Blinded Me With Science
TTITLE9=The Art Of Noise - Moments In Love
TTITLE10=Animotion - Obsession
TTITLE11=Freur - Doot Doot
TTITLE12=Ultravox - Vienna
TTITLE13=Duran Duran - The Reflex (7'' Version)
TTITLE14=Simple Minds - New Gold Dream (81-84 German 12'' Remix)
TTITLE15=Propaganda - Duel
TTITLE16=Hubert Kah - Limousine
TTITLE17=Human League - Being Boiled (Fast Version)
TTITLE18=A Flock Of Seagulls - I Ran
EXTD=
EXTT0=
EXTT1=
EXTT2=
EXTT3=
EXTT4=
EXTT5=
EXTT6=
EXTT7=
EXTT8=
EXTT9=
EXTT10=
EXTT11=
EXTT12=
EXTT13=
EXTT14=
EXTT15=
EXTT16=
EXTT17=
EXTT18=
PLAYORDER=
